# xmcd
#
# Track frame offsets:
#	150
#	9797
#	26775
#	43736
#	62148
#	79193
#	99974
#	117802
#	137687
#	160046
#	177625
#
# Disc length: 2391 seconds
#
# Revision: 1
# Processed by: cddbd v1.5.2PL0 Copyright (c) Steve Scherf et al.
# Submitted via: audiograbber 1.83.01
#
DISCID=8509550b
DTITLE=Joshua's Tree  - Harvest Time
DYEAR=2013
DGENRE=Bluegrass
TTITLE0=Live Again
TTITLE1=Jesus Showed Up
TTITLE2=You Are My God
TTITLE3=Hem Of His Garmet
TTITLE4=Clinging To A Saving Hand
TTITLE5=Stand Still
TTITLE6=Work To Be Done
TTITLE7=Your Paths Will Cross
TTITLE8=Celebrate Me Home
TTITLE9=Little By Little
TTITLE10=Psalms 1:3
EXTD=
EXTT0=
EXTT1=
EXTT2=
EXTT3=
EXTT4=
EXTT5=
EXTT6=
EXTT7=
EXTT8=
EXTT9=
EXTT10=
PLAYORDER=
